<svg height="424pt" viewBox="0 -5 424.99673 424" width="424pt" xmlns="http://www.w3.org/2000/svg"><path d="m332.464844 149.09375c-2.761719-2.578125-7.085938-2.410156-9.644532.351562-2.570312 2.765626-2.40625 7.082032.351563 9.648438 23.328125 21.671875 38.039063 49.667969 42.578125 80.339844h-63.976562c-9.535157-32.382813-39.789063-55.34375-73.949219-55.34375-34.160157 0-64.410157 22.964844-73.953125 55.34375h-63.953125c10.019531-66.507813 68.035156-117.683594 137.90625-117.683594 16.546875 0 32.726562 2.839844 48.09375 8.433594 3.558593 1.3125 7.472656-.535156 8.753906-4.078125 1.292969-3.542969-.53125-7.457031-4.082031-8.75-16.867188-6.144531-34.617188-9.261719-52.765625-9.261719-84.421875 0-153.101563 68.101562-153.101563 151.816406 0 85.125 68.679688 154.371094 153.101563 154.371094 84.414062 0 153.09375-69.246094 153.09375-154.371094 0-41.820312-17.660157-82.214844-48.453125-110.816406zm-241.976563 103.992188h68.679688c3.214843 0 5.996093-2.238282 6.675781-5.378907 6.273438-28.953125 32.339844-49.964843 61.976562-49.964843 29.648438 0 55.710938 21.011718 61.972657 49.960937.679687 3.144531 3.460937 5.382813 6.675781 5.382813h67.085938v13.652343h-66.613282c-3.308594 0-6.140625 2.375-6.71875 5.628907-5.386718 30.289062-31.632812 52.273437-62.402344 52.273437-30.765624 0-57.011718-21.984375-62.398437-52.273437-.582031-3.253907-3.414063-5.628907-6.722656-5.628907h-68.210938zm137.335938 147.546874c-70 0-128.097657-52.320312-137.953125-120.238281h63.328125c8.652343 33.871094 39.164062 57.898438 74.625 57.898438 35.460937 0 65.972656-24.027344 74.628906-57.898438h63.320313c-9.859376 67.917969-67.957032 120.238281-137.949219 120.238281zm0 0"/><path d="m297.40625 140.320312c2.40625 1.386719 4.765625 2.84375 7.078125 4.371094 1.160156.761719 2.464844 1.125 3.753906 1.125 2.21875 0 4.390625-1.078125 5.707031-3.070312 2.070313-3.144532 1.207032-7.378906-1.941406-9.457032-2.539062-1.671874-5.140625-3.273437-7.785156-4.796874-3.273438-1.886719-7.441406-.765626-9.320312 2.503906-1.886719 3.265625-.761719 7.441406 2.507812 9.324218zm0 0"/><path d="m227.824219 314.742188c29.527343 0 53.546875-24.023438 53.546875-53.550782 0-29.53125-24.019532-53.554687-53.546875-53.554687-29.527344 0-53.554688 24.027343-53.554688 53.554687s24.027344 53.550782 53.554688 53.550782zm0-93.449219c22 0 39.894531 17.898437 39.894531 39.902343 0 22-17.894531 39.894532-39.894531 39.894532s-39.902344-17.898438-39.902344-39.898438 17.902344-39.898437 39.902344-39.898437zm0 0"/><path d="m227.824219 288.359375c14.980469 0 27.167969-12.1875 27.167969-27.167969 0-14.980468-12.1875-27.167968-27.167969-27.167968s-27.167969 12.1875-27.167969 27.167968c0 14.980469 12.1875 27.167969 27.167969 27.167969zm0-40.679687c7.453125 0 13.511719 6.0625 13.511719 13.511718 0 7.449219-6.058594 13.515625-13.511719 13.515625s-13.515625-6.066406-13.515625-13.515625c0-7.449218 6.0625-13.511718 13.515625-13.511718zm0 0"/><path d="m384.035156 61.9375c3.773438 0 6.828125-3.054688 6.828125-6.824219v-20.480469c0-3.769531-3.054687-6.828124-6.828125-6.828124-3.773437 0-6.824218 3.058593-6.824218 6.828124v20.480469c0 3.769531 3.054687 6.824219 6.824218 6.824219zm0 0"/><path d="m384.035156 75.589844c-3.773437 0-6.824218 3.058594-6.824218 6.828125v20.480469c0 3.769531 3.050781 6.828124 6.824218 6.828124 3.773438 0 6.828125-3.058593 6.828125-6.828124v-20.480469c0-3.769531-3.054687-6.828125-6.828125-6.828125zm0 0"/><path d="m349.902344 75.589844h20.480468c3.773438 0 6.828126-3.054688 6.828126-6.824219s-3.054688-6.828125-6.828126-6.828125h-20.480468c-3.773438 0-6.824219 3.058594-6.824219 6.828125s3.054687 6.824219 6.824219 6.824219zm0 0"/><path d="m418.171875 61.9375h-20.480469c-3.773437 0-6.828125 3.058594-6.828125 6.828125s3.054688 6.824219 6.828125 6.824219h20.480469c3.773437 0 6.824219-3.054688 6.824219-6.824219s-3.050782-6.828125-6.824219-6.828125zm0 0"/><path d="m41.222656 182.710938c-1.632812-5.382813-5.257812-9.804688-10.21875-12.457032-4.960937-2.65625-10.671875-3.230468-16.035156-1.585937-5.386719 1.628906-9.820312 5.257812-12.472656 10.21875-2.648438 4.960937-3.214844 10.65625-1.582032 16.039062 1.636719 5.382813 5.261719 9.808594 10.222657 12.460938 3.097656 1.65625 6.484375 2.5 9.90625 2.5 2.050781 0 4.113281-.304688 6.132812-.914063 11.105469-3.367187 17.40625-15.144531 14.046875-26.253906 0-.003906 0-.007812 0-.007812zm-18.007812 13.195312c-1.890625.578125-3.882813.378906-5.640625-.554688-1.742188-.933593-3.019531-2.492187-3.589844-4.378906-.574219-1.894531-.382813-3.898437.550781-5.640625.933594-1.746093 2.496094-3.023437 4.386719-3.59375.714844-.21875 1.433594-.324219 2.160156-.324219 1.199219 0 2.386719.296876 3.480469.882813 1.746094.933594 3.023438 2.488281 3.59375 4.378906 1.179688 3.90625-1.039062 8.046875-4.941406 9.230469zm0 0"/><path d="m34.558594.5c-11.613282 0-21.0625 9.445312-21.0625 21.054688 0 11.609374 9.449218 21.058593 21.0625 21.058593 11.613281 0 21.058594-9.449219 21.058594-21.058593 0-11.609376-9.445313-21.054688-21.058594-21.054688zm0 28.457031c-4.089844 0-7.40625-3.316406-7.40625-7.402343 0-4.082032 3.316406-7.402344 7.40625-7.402344 4.085937 0 7.40625 3.320312 7.40625 7.402344 0 4.085937-3.320313 7.402343-7.40625 7.402343zm0 0"/><path d="m94.246094 112.714844c1.332031 1.332031 3.078125 2 4.824218 2 1.746094 0 3.496094-.667969 4.828126-2l5.234374-5.234375 5.238282 5.234375c1.332031 1.332031 3.078125 2 4.824218 2 1.746094 0 3.496094-.667969 4.828126-2 2.664062-2.664063 2.664062-6.988282 0-9.652344l-5.238282-5.238281 5.238282-5.234375c2.664062-2.664063 2.664062-6.988282 0-9.652344-2.667969-2.667969-6.988282-2.667969-9.652344 0l-5.238282 5.234375-5.234374-5.234375c-2.667969-2.667969-6.988282-2.667969-9.652344 0-2.667969 2.664062-2.667969 6.988281 0 9.652344l5.234375 5.234375-5.234375 5.238281c-2.667969 2.667969-2.667969 6.988281 0 9.652344zm0 0"/><path d="m212.648438 44.964844c6.285156 0 11.386718-5.097656 11.386718-11.382813 0-6.289062-5.101562-11.386719-11.386718-11.386719-6.289063 0-11.386719 5.097657-11.386719 11.386719 0 6.285157 5.097656 11.382813 11.386719 11.382813zm0 0"/><path d="m403.792969 165.554688c-6.285157 0-11.382813 5.097656-11.382813 11.386718 0 6.285156 5.097656 11.382813 11.382813 11.382813 6.289062 0 11.386719-5.097657 11.386719-11.382813 0-6.289062-5.097657-11.386718-11.386719-11.386718zm0 0"/></svg>